<?xml version="1.0" encoding="UTF-8"?>
<svg width="154px" height="154px" viewBox="0 0 154 154" version="1.1" xmlns="http://www.w3.org/2000/svg" xmlns:xlink="http://www.w3.org/1999/xlink">
    <!-- Generator: Sketch 43.1 (39012) - http://www.bohemiancoding.com/sketch -->
    <title>apollo_icon</title>
    <desc>Created with Sketch.</desc>
    <defs></defs>
    <g id="Page-1" stroke="none" stroke-width="1" fill="none" fill-rule="evenodd">
        <g id="icon-apollo-white" fill-rule="nonzero" fill="#FFFFFF">
            <g id="apollo_icon" transform="translate(77.000000, 77.000000) scale(1, -1) translate(-77.000000, -77.000000) ">
                <g id="Group">
                    <polygon id="Shape" points="86.53 116.316 67.934 116.316 41.085 46.633 57.904 46.633 62.293 58.438 87.663 58.438 83.069 71.498 66.367 71.498 77.232 101.481 96.561 46.633 113.38 46.633"></polygon>
                    <path d="M150.877,97.682 C150.832,97.92 150.767,98.15 150.681,98.37 C150.66,98.446 150.589,98.589 150.589,98.589 C149.983,99.906 148.653,100.823 147.108,100.823 C144.99,100.823 143.273,99.106 143.273,96.988 C143.273,96.556 143.346,96.144 143.477,95.759 L143.467,95.755 C145.158,89.728 146.033,83.432 146.033,77 C146.033,58.561 138.851,41.225 125.814,28.186 C112.775,15.146 95.439,7.966 77,7.966 C58.561,7.966 41.224,15.148 28.186,28.186 C15.146,41.225 7.966,58.561 7.966,77 C7.966,95.439 15.147,112.775 28.186,125.814 C41.224,138.854 58.561,146.033 77,146.033 C93.466,146.033 109.048,140.303 121.479,129.793 C121.061,128.731 120.829,127.573 120.829,126.361 C120.829,121.183 125.027,116.986 130.204,116.986 C135.382,116.986 139.58,121.183 139.58,126.361 C139.58,131.539 135.382,135.736 130.204,135.736 C129.075,135.736 127.992,135.537 126.988,135.171 C113.562,146.721 96.099,153.705 77,153.705 C34.637,153.705 0.296,119.363 0.296,77 C0.296,34.637 34.637,0.295 77,0.295 C119.362,0.295 153.704,34.637 153.704,77 C153.704,84.166 152.715,91.102 150.877,97.682 Z" id="Shape"></path>
                </g>
            </g>
        </g>
    </g>
</svg>