<svg xmlns="http://www.w3.org/2000/svg" viewBox="0 0 75.12 13.62"><defs><style>.cls-1{fill:#fff;}</style></defs><title>Asset 1</title><g id="Layer_2" data-name="Layer 2"><g id="Layer_1-2" data-name="Layer 1"><path class="cls-1" d="M0,0H1.33V9.49h5v1.18H0Z"/><path class="cls-1" d="M12.72,9.8a3.35,3.35,0,0,1-2.56,1.07A2.57,2.57,0,0,1,7.46,8.31a2.53,2.53,0,0,1,2.71-2.54,3.24,3.24,0,0,1,2.56,1.06V5.43c0-1-.83-1.63-2-1.63A3.07,3.07,0,0,0,8.4,4.87L7.84,4a4,4,0,0,1,3.09-1.28c1.63,0,3,.74,3,2.61v5.31h-1.2Zm0-2.21a2.59,2.59,0,0,0-2.13-1,1.7,1.7,0,1,0,0,3.38,2.59,2.59,0,0,0,2.13-1Z"/><path class="cls-1" d="M21.54,9.59a3.78,3.78,0,0,1-2.75,1.28A2.17,2.17,0,0,1,16.32,8.4V2.95h1.2V8c0,1.36.69,1.76,1.73,1.76a3,3,0,0,0,2.29-1.17V2.95h1.2v7.73h-1.2Z"/><path class="cls-1" d="M30.35,5.62c0-1.36-.69-1.79-1.73-1.79A3,3,0,0,0,26.34,5v5.65h-1.2V2.95h1.2V4.07a3.84,3.84,0,0,1,2.75-1.31,2.2,2.2,0,0,1,2.46,2.5v5.43h-1.2Z"/><path class="cls-1" d="M37.36,2.75A3.31,3.31,0,0,1,40.19,4.1l-.8.74a2.29,2.29,0,0,0-2-1,2.69,2.69,0,0,0-2.67,3,2.71,2.71,0,0,0,2.67,3,2.33,2.33,0,0,0,2-1l.8.74a3.31,3.31,0,0,1-2.83,1.34A3.82,3.82,0,0,1,33.5,6.8,3.82,3.82,0,0,1,37.36,2.75Z"/><path class="cls-1" d="M47.11,5.59c0-1.36-.7-1.76-1.75-1.76A3,3,0,0,0,43.07,5v5.65h-1.2V0h1.2V4.07a3.84,3.84,0,0,1,2.77-1.31,2.17,2.17,0,0,1,2.46,2.46v5.46h-1.2Z"/><path class="cls-1" d="M50.7,13.62V2.95h1.2V4.1a3.23,3.23,0,0,1,2.61-1.34c2,0,3.44,1.54,3.44,4s-1.41,4.07-3.44,4.07A3.17,3.17,0,0,1,51.9,9.51v4.11Zm3.5-9.8a2.86,2.86,0,0,0-2.3,1.23V8.55a2.87,2.87,0,0,0,2.3,1.25c1.55,0,2.48-1.28,2.48-3S55.76,3.83,54.21,3.83Z"/><path class="cls-1" d="M64.72,9.8a3.34,3.34,0,0,1-2.56,1.07,2.57,2.57,0,0,1-2.71-2.56,2.53,2.53,0,0,1,2.71-2.54,3.23,3.23,0,0,1,2.56,1.06V5.43c0-1-.83-1.63-2-1.63A3.07,3.07,0,0,0,60.4,4.87L59.84,4a4,4,0,0,1,3.09-1.28c1.63,0,3,.74,3,2.61v5.31h-1.2Zm0-2.21a2.59,2.59,0,0,0-2.13-1,1.7,1.7,0,1,0,0,3.38,2.59,2.59,0,0,0,2.13-1Z"/><path class="cls-1" d="M73.92,9.52a3.26,3.26,0,0,1-2.61,1.34c-2,0-3.44-1.54-3.44-4s1.41-4.07,3.44-4.07a3.23,3.23,0,0,1,2.61,1.36V0h1.2V10.68h-1.2Zm0-4.45A2.9,2.9,0,0,0,71.6,3.83c-1.55,0-2.48,1.28-2.48,3s.93,3,2.48,3a2.88,2.88,0,0,0,2.32-1.22Z"/></g></g></svg>